# xmcd CD database file
#
# Track frame offsets:
#	150
#	12662
#	32205
#	45940
#	58791
#	72987
#	87911
#	108221
#	117817
#	131290
#
# Disc length: 1930 seconds
#
# Revision: 0
# Processed by: cddbd v1.5.1PL0 Copyright (c) Steve Scherf et al.
# Submitted via: CDex 1.51
#
DISCID=7e07880a
DTITLE=Parker Trio - Love Remains
DYEAR=2002
DGENRE=CCM
TTITLE0=Love Remains
TTITLE1=Thank God For Calvary
TTITLE2=His Way Is Always The Best
TTITLE3=I Can't Wait To Cross Jordan
TTITLE4=I Will Follow You
TTITLE5=Walk Of A Winner
TTITLE6=They Are Home
TTITLE7=Open Those Pearly Gates
TTITLE8=I Surrender
TTITLE9=My Father's Home
EXTD=YEAR: 2002
EXTT0=
EXTT1=
EXTT2=
EXTT3=
EXTT4=
EXTT5=
EXTT6=
EXTT7=
EXTT8=
EXTT9=
PLAYORDER=
